<svg xmlns="http://www.w3.org/2000/svg" xmlns:xlink="http://www.w3.org/1999/xlink" width="1080" zoomAndPan="magnify" viewBox="0 0 810 809.999993" height="1080" preserveAspectRatio="xMidYMid meet" version="1.0"><defs><clipPath id="7a2dfd3ad3"><path d="M 84.355469 84.355469 L 725.644531 84.355469 L 725.644531 725.644531 L 84.355469 725.644531 Z M 84.355469 84.355469 " clip-rule="nonzero"/></clipPath><clipPath id="fff027bfce"><path d="M 405 84.355469 C 227.914062 84.355469 84.355469 227.914062 84.355469 405 C 84.355469 582.085938 227.914062 725.644531 405 725.644531 C 582.085938 725.644531 725.644531 582.085938 725.644531 405 C 725.644531 227.914062 582.085938 84.355469 405 84.355469 Z M 405 84.355469 " clip-rule="nonzero"/></clipPath><clipPath id="adb03291a5"><path d="M 356.339844 501.046875 L 460.371094 501.046875 L 460.371094 605.078125 L 356.339844 605.078125 Z M 356.339844 501.046875 " clip-rule="nonzero"/></clipPath><clipPath id="ade7dcd552"><path d="M 408.355469 501.046875 C 379.625 501.046875 356.339844 524.332031 356.339844 553.0625 C 356.339844 581.789062 379.625 605.078125 408.355469 605.078125 C 437.082031 605.078125 460.371094 581.789062 460.371094 553.0625 C 460.371094 524.332031 437.082031 501.046875 408.355469 501.046875 Z M 408.355469 501.046875 " clip-rule="nonzero"/></clipPath><clipPath id="81a27904c8"><path d="M 356.339844 501.046875 L 460.367188 501.046875 L 460.367188 605.074219 L 356.339844 605.074219 Z M 356.339844 501.046875 " clip-rule="nonzero"/></clipPath><clipPath id="2381cf926f"><path d="M 408.351562 501.046875 C 379.625 501.046875 356.339844 524.332031 356.339844 553.058594 C 356.339844 581.785156 379.625 605.074219 408.351562 605.074219 C 437.078125 605.074219 460.367188 581.785156 460.367188 553.058594 C 460.367188 524.332031 437.078125 501.046875 408.351562 501.046875 Z M 408.351562 501.046875 " clip-rule="nonzero"/></clipPath><clipPath id="b6ef78ae84"><path d="M 356.339844 211.632812 L 460.371094 211.632812 L 460.371094 315.664062 L 356.339844 315.664062 Z M 356.339844 211.632812 " clip-rule="nonzero"/></clipPath><clipPath id="2de3e77512"><path d="M 408.355469 211.632812 C 379.625 211.632812 356.339844 234.921875 356.339844 263.648438 C 356.339844 292.375 379.625 315.664062 408.355469 315.664062 C 437.082031 315.664062 460.371094 292.375 460.371094 263.648438 C 460.371094 234.921875 437.082031 211.632812 408.355469 211.632812 Z M 408.355469 211.632812 " clip-rule="nonzero"/></clipPath><clipPath id="4b5342622b"><path d="M 356.339844 211.632812 L 460.367188 211.632812 L 460.367188 315.660156 L 356.339844 315.660156 Z M 356.339844 211.632812 " clip-rule="nonzero"/></clipPath><clipPath id="55239d747d"><path d="M 408.351562 211.632812 C 379.625 211.632812 356.339844 234.917969 356.339844 263.644531 C 356.339844 292.371094 379.625 315.660156 408.351562 315.660156 C 437.078125 315.660156 460.367188 292.371094 460.367188 263.644531 C 460.367188 234.917969 437.078125 211.632812 408.351562 211.632812 Z M 408.351562 211.632812 " clip-rule="nonzero"/></clipPath><clipPath id="f6c257fbba"><path d="M 499.339844 356.253906 L 603.371094 356.253906 L 603.371094 460.285156 L 499.339844 460.285156 Z M 499.339844 356.253906 " clip-rule="nonzero"/></clipPath><clipPath id="7017d87161"><path d="M 551.355469 356.253906 C 522.625 356.253906 499.339844 379.542969 499.339844 408.269531 C 499.339844 437 522.625 460.285156 551.355469 460.285156 C 580.082031 460.285156 603.371094 437 603.371094 408.269531 C 603.371094 379.542969 580.082031 356.253906 551.355469 356.253906 Z M 551.355469 356.253906 " clip-rule="nonzero"/></clipPath><clipPath id="c38344671f"><path d="M 499.339844 356.253906 L 603.367188 356.253906 L 603.367188 460.28125 L 499.339844 460.28125 Z M 499.339844 356.253906 " clip-rule="nonzero"/></clipPath><clipPath id="645118780b"><path d="M 551.351562 356.253906 C 522.625 356.253906 499.339844 379.542969 499.339844 408.269531 C 499.339844 436.996094 522.625 460.28125 551.351562 460.28125 C 580.078125 460.28125 603.367188 436.996094 603.367188 408.269531 C 603.367188 379.542969 580.078125 356.253906 551.351562 356.253906 Z M 551.351562 356.253906 " clip-rule="nonzero"/></clipPath><clipPath id="9060505529"><path d="M 356.339844 356.253906 L 460.371094 356.253906 L 460.371094 460.285156 L 356.339844 460.285156 Z M 356.339844 356.253906 " clip-rule="nonzero"/></clipPath><clipPath id="f067386b53"><path d="M 408.355469 356.253906 C 379.625 356.253906 356.339844 379.542969 356.339844 408.269531 C 356.339844 437 379.625 460.285156 408.355469 460.285156 C 437.082031 460.285156 460.371094 437 460.371094 408.269531 C 460.371094 379.542969 437.082031 356.253906 408.355469 356.253906 Z M 408.355469 356.253906 " clip-rule="nonzero"/></clipPath><clipPath id="6b295df5d8"><path d="M 356.339844 356.253906 L 460.367188 356.253906 L 460.367188 460.28125 L 356.339844 460.28125 Z M 356.339844 356.253906 " clip-rule="nonzero"/></clipPath><clipPath id="711e88600d"><path d="M 408.351562 356.253906 C 379.625 356.253906 356.339844 379.542969 356.339844 408.269531 C 356.339844 436.996094 379.625 460.28125 408.351562 460.28125 C 437.078125 460.28125 460.367188 436.996094 460.367188 408.269531 C 460.367188 379.542969 437.078125 356.253906 408.351562 356.253906 Z M 408.351562 356.253906 " clip-rule="nonzero"/></clipPath><clipPath id="7e24a25db2"><path d="M 213.339844 361.507812 L 317.371094 361.507812 L 317.371094 465.542969 L 213.339844 465.542969 Z M 213.339844 361.507812 " clip-rule="nonzero"/></clipPath><clipPath id="b87774ce8a"><path d="M 265.355469 361.507812 C 236.628906 361.507812 213.339844 384.796875 213.339844 413.527344 C 213.339844 442.253906 236.628906 465.542969 265.355469 465.542969 C 294.082031 465.542969 317.371094 442.253906 317.371094 413.527344 C 317.371094 384.796875 294.082031 361.507812 265.355469 361.507812 Z M 265.355469 361.507812 " clip-rule="nonzero"/></clipPath><clipPath id="4d620ebc00"><path d="M 213.339844 361.507812 L 317.367188 361.507812 L 317.367188 465.535156 L 213.339844 465.535156 Z M 213.339844 361.507812 " clip-rule="nonzero"/></clipPath><clipPath id="c35cba1fe6"><path d="M 265.351562 361.507812 C 236.625 361.507812 213.339844 384.796875 213.339844 413.523438 C 213.339844 442.25 236.625 465.535156 265.351562 465.535156 C 294.078125 465.535156 317.367188 442.25 317.367188 413.523438 C 317.367188 384.796875 294.078125 361.507812 265.351562 361.507812 Z M 265.351562 361.507812 " clip-rule="nonzero"/></clipPath><clipPath id="8924efb59a"><path d="M 499.339844 211.632812 L 603.371094 211.632812 L 603.371094 315.664062 L 499.339844 315.664062 Z M 499.339844 211.632812 " clip-rule="nonzero"/></clipPath><clipPath id="ce9cffd148"><path d="M 551.355469 211.632812 C 522.625 211.632812 499.339844 234.921875 499.339844 263.648438 C 499.339844 292.375 522.625 315.664062 551.355469 315.664062 C 580.082031 315.664062 603.371094 292.375 603.371094 263.648438 C 603.371094 234.921875 580.082031 211.632812 551.355469 211.632812 Z M 551.355469 211.632812 " clip-rule="nonzero"/></clipPath><clipPath id="cd131d42c3"><path d="M 499.339844 211.632812 L 603.367188 211.632812 L 603.367188 315.660156 L 499.339844 315.660156 Z M 499.339844 211.632812 " clip-rule="nonzero"/></clipPath><clipPath id="dc7dbf2098"><path d="M 551.351562 211.632812 C 522.625 211.632812 499.339844 234.917969 499.339844 263.644531 C 499.339844 292.371094 522.625 315.660156 551.351562 315.660156 C 580.078125 315.660156 603.367188 292.371094 603.367188 263.644531 C 603.367188 234.917969 580.078125 211.632812 551.351562 211.632812 Z M 551.351562 211.632812 " clip-rule="nonzero"/></clipPath><clipPath id="6f68fc25e5"><path d="M 213.339844 211.632812 L 317.371094 211.632812 L 317.371094 315.664062 L 213.339844 315.664062 Z M 213.339844 211.632812 " clip-rule="nonzero"/></clipPath><clipPath id="6f8468989e"><path d="M 265.355469 211.632812 C 236.628906 211.632812 213.339844 234.921875 213.339844 263.648438 C 213.339844 292.375 236.628906 315.664062 265.355469 315.664062 C 294.082031 315.664062 317.371094 292.375 317.371094 263.648438 C 317.371094 234.921875 294.082031 211.632812 265.355469 211.632812 Z M 265.355469 211.632812 " clip-rule="nonzero"/></clipPath><clipPath id="9f05595752"><path d="M 213.339844 211.632812 L 317.367188 211.632812 L 317.367188 315.660156 L 213.339844 315.660156 Z M 213.339844 211.632812 " clip-rule="nonzero"/></clipPath><clipPath id="920d0ce67d"><path d="M 265.351562 211.632812 C 236.625 211.632812 213.339844 234.917969 213.339844 263.644531 C 213.339844 292.371094 236.625 315.660156 265.351562 315.660156 C 294.078125 315.660156 317.367188 292.371094 317.367188 263.644531 C 317.367188 234.917969 294.078125 211.632812 265.351562 211.632812 Z M 265.351562 211.632812 " clip-rule="nonzero"/></clipPath><clipPath id="0839f4ebd8"><path d="M 213.339844 501.046875 L 317.371094 501.046875 L 317.371094 605.078125 L 213.339844 605.078125 Z M 213.339844 501.046875 " clip-rule="nonzero"/></clipPath><clipPath id="3db62c1505"><path d="M 265.355469 501.046875 C 236.628906 501.046875 213.339844 524.332031 213.339844 553.0625 C 213.339844 581.789062 236.628906 605.078125 265.355469 605.078125 C 294.082031 605.078125 317.371094 581.789062 317.371094 553.0625 C 317.371094 524.332031 294.082031 501.046875 265.355469 501.046875 Z M 265.355469 501.046875 " clip-rule="nonzero"/></clipPath><clipPath id="d30efd9d5c"><path d="M 213.339844 501.046875 L 317.367188 501.046875 L 317.367188 605.074219 L 213.339844 605.074219 Z M 213.339844 501.046875 " clip-rule="nonzero"/></clipPath><clipPath id="259f803f2c"><path d="M 265.351562 501.046875 C 236.625 501.046875 213.339844 524.332031 213.339844 553.058594 C 213.339844 581.785156 236.625 605.074219 265.351562 605.074219 C 294.078125 605.074219 317.367188 581.785156 317.367188 553.058594 C 317.367188 524.332031 294.078125 501.046875 265.351562 501.046875 Z M 265.351562 501.046875 " clip-rule="nonzero"/></clipPath><clipPath id="ab9b4ed702"><path d="M 499.339844 501.046875 L 603.371094 501.046875 L 603.371094 605.078125 L 499.339844 605.078125 Z M 499.339844 501.046875 " clip-rule="nonzero"/></clipPath><clipPath id="7ec128f465"><path d="M 551.355469 501.046875 C 522.625 501.046875 499.339844 524.332031 499.339844 553.0625 C 499.339844 581.789062 522.625 605.078125 551.355469 605.078125 C 580.082031 605.078125 603.371094 581.789062 603.371094 553.0625 C 603.371094 524.332031 580.082031 501.046875 551.355469 501.046875 Z M 551.355469 501.046875 " clip-rule="nonzero"/></clipPath><clipPath id="020621ca0f"><path d="M 499.339844 501.046875 L 603.367188 501.046875 L 603.367188 605.074219 L 499.339844 605.074219 Z M 499.339844 501.046875 " clip-rule="nonzero"/></clipPath><clipPath id="3902938403"><path d="M 551.351562 501.046875 C 522.625 501.046875 499.339844 524.332031 499.339844 553.058594 C 499.339844 581.785156 522.625 605.074219 551.351562 605.074219 C 580.078125 605.074219 603.367188 581.785156 603.367188 553.058594 C 603.367188 524.332031 580.078125 501.046875 551.351562 501.046875 Z M 551.351562 501.046875 " clip-rule="nonzero"/></clipPath></defs><g clip-path="url(#7a2dfd3ad3)"><g clip-path="url(#fff027bfce)"><path fill="#cc69d4" d="M 84.355469 84.355469 L 725.644531 84.355469 L 725.644531 725.644531 L 84.355469 725.644531 Z M 84.355469 84.355469 " fill-opacity="1" fill-rule="nonzero"/></g></g><g clip-path="url(#adb03291a5)"><g clip-path="url(#ade7dcd552)"><path fill="#cc69d4" d="M 356.339844 501.046875 L 460.371094 501.046875 L 460.371094 605.078125 L 356.339844 605.078125 Z M 356.339844 501.046875 " fill-opacity="1" fill-rule="nonzero"/></g></g><g clip-path="url(#81a27904c8)"><g clip-path="url(#2381cf926f)"><path stroke-linecap="butt" transform="matrix(0.75, 0, 0, 0.75, 356.33855, 501.045475)" fill="none" stroke-linejoin="miter" d="M 69.350686 0.00186694 C 31.048601 0.00186694 0.0017245 31.048744 0.0017245 69.350829 C 0.0017245 107.652914 31.048601 138.704999 69.350686 138.704999 C 107.652772 138.704999 138.704856 107.652914 138.704856 69.350829 C 138.704856 31.048744 107.652772 0.00186694 69.350686 0.00186694 Z M 69.350686 0.00186694 " stroke="#000000" stroke-width="58" stroke-opacity="1" stroke-miterlimit="4"/></g></g><g clip-path="url(#b6ef78ae84)"><g clip-path="url(#2de3e77512)"><path fill="#cc69d4" d="M 356.339844 211.632812 L 460.371094 211.632812 L 460.371094 315.664062 L 356.339844 315.664062 Z M 356.339844 211.632812 " fill-opacity="1" fill-rule="nonzero"/></g></g><g clip-path="url(#4b5342622b)"><g clip-path="url(#55239d747d)"><path stroke-linecap="butt" transform="matrix(0.75, 0, 0, 0.75, 356.33855, 211.631714)" fill="none" stroke-linejoin="miter" d="M 69.350686 0.00146446 C 31.048601 0.00146446 0.0017245 31.048341 0.0017245 69.350426 C 0.0017245 107.652512 31.048601 138.704596 69.350686 138.704596 C 107.652772 138.704596 138.704856 107.652512 138.704856 69.350426 C 138.704856 31.048341 107.652772 0.00146446 69.350686 0.00146446 Z M 69.350686 0.00146446 " stroke="#000000" stroke-width="58" stroke-opacity="1" stroke-miterlimit="4"/></g></g><g clip-path="url(#f6c257fbba)"><g clip-path="url(#7017d87161)"><path fill="#cc69d4" d="M 499.339844 356.253906 L 603.371094 356.253906 L 603.371094 460.285156 L 499.339844 460.285156 Z M 499.339844 356.253906 " fill-opacity="1" fill-rule="nonzero"/></g></g><g clip-path="url(#c38344671f)"><g clip-path="url(#645118780b)"><path stroke-linecap="butt" transform="matrix(0.75, 0, 0, 0.75, 499.338146, 356.254924)" fill="none" stroke-linejoin="miter" d="M 69.351225 -0.00135764 C 31.04914 -0.00135764 0.00226316 31.050727 0.00226316 69.352813 C 0.00226316 107.654898 31.04914 138.701774 69.351225 138.701774 C 107.65331 138.701774 138.705395 107.654898 138.705395 69.352813 C 138.705395 31.050727 107.65331 -0.00135764 69.351225 -0.00135764 Z M 69.351225 -0.00135764 " stroke="#000000" stroke-width="58" stroke-opacity="1" stroke-miterlimit="4"/></g></g><g clip-path="url(#9060505529)"><g clip-path="url(#f067386b53)"><path fill="#cc69d4" d="M 356.339844 356.253906 L 460.371094 356.253906 L 460.371094 460.285156 L 356.339844 460.285156 Z M 356.339844 356.253906 " fill-opacity="1" fill-rule="nonzero"/></g></g><g clip-path="url(#6b295df5d8)"><g clip-path="url(#711e88600d)"><path stroke-linecap="butt" transform="matrix(0.75, 0, 0, 0.75, 356.33855, 356.254924)" fill="none" stroke-linejoin="miter" d="M 69.350686 -0.00135764 C 31.048601 -0.00135764 0.0017245 31.050727 0.0017245 69.352813 C 0.0017245 107.654898 31.048601 138.701774 69.350686 138.701774 C 107.652772 138.701774 138.704856 107.654898 138.704856 69.352813 C 138.704856 31.050727 107.652772 -0.00135764 69.350686 -0.00135764 Z M 69.350686 -0.00135764 " stroke="#000000" stroke-width="58" stroke-opacity="1" stroke-miterlimit="4"/></g></g><g clip-path="url(#7e24a25db2)"><g clip-path="url(#b87774ce8a)"><path fill="#cc69d4" d="M 213.339844 361.507812 L 317.371094 361.507812 L 317.371094 465.542969 L 213.339844 465.542969 Z M 213.339844 361.507812 " fill-opacity="1" fill-rule="nonzero"/></g></g><g clip-path="url(#4d620ebc00)"><g clip-path="url(#c35cba1fe6)"><path stroke-linecap="butt" transform="matrix(0.75, 0, 0, 0.75, 213.338988, 361.509669)" fill="none" stroke-linejoin="miter" d="M 69.350103 -0.00247535 C 31.048018 -0.00247535 0.00114104 31.04961 0.00114104 69.351695 C 0.00114104 107.65378 31.048018 138.700657 69.350103 138.700657 C 107.652188 138.700657 138.704273 107.65378 138.704273 69.351695 C 138.704273 31.04961 107.652188 -0.00247535 69.350103 -0.00247535 Z M 69.350103 -0.00247535 " stroke="#000000" stroke-width="58" stroke-opacity="1" stroke-miterlimit="4"/></g></g><g clip-path="url(#8924efb59a)"><g clip-path="url(#ce9cffd148)"><path fill="#cc69d4" d="M 499.339844 211.632812 L 603.371094 211.632812 L 603.371094 315.664062 L 499.339844 315.664062 Z M 499.339844 211.632812 " fill-opacity="1" fill-rule="nonzero"/></g></g><g clip-path="url(#cd131d42c3)"><g clip-path="url(#dc7dbf2098)"><path stroke-linecap="butt" transform="matrix(0.75, 0, 0, 0.75, 499.338146, 211.631714)" fill="none" stroke-linejoin="miter" d="M 69.351225 0.00146446 C 31.04914 0.00146446 0.00226316 31.048341 0.00226316 69.350426 C 0.00226316 107.652512 31.04914 138.704596 69.351225 138.704596 C 107.65331 138.704596 138.705395 107.652512 138.705395 69.350426 C 138.705395 31.048341 107.65331 0.00146446 69.351225 0.00146446 Z M 69.351225 0.00146446 " stroke="#000000" stroke-width="58" stroke-opacity="1" stroke-miterlimit="4"/></g></g><g clip-path="url(#6f68fc25e5)"><g clip-path="url(#6f8468989e)"><path fill="#cc69d4" d="M 213.339844 211.632812 L 317.371094 211.632812 L 317.371094 315.664062 L 213.339844 315.664062 Z M 213.339844 211.632812 " fill-opacity="1" fill-rule="nonzero"/></g></g><g clip-path="url(#9f05595752)"><g clip-path="url(#920d0ce67d)"><path stroke-linecap="butt" transform="matrix(0.75, 0, 0, 0.75, 213.338988, 211.631714)" fill="none" stroke-linejoin="miter" d="M 69.350103 0.00146446 C 31.048018 0.00146446 0.00114104 31.048341 0.00114104 69.350426 C 0.00114104 107.652512 31.048018 138.704596 69.350103 138.704596 C 107.652188 138.704596 138.704273 107.652512 138.704273 69.350426 C 138.704273 31.048341 107.652188 0.00146446 69.350103 0.00146446 Z M 69.350103 0.00146446 " stroke="#000000" stroke-width="58" stroke-opacity="1" stroke-miterlimit="4"/></g></g><g clip-path="url(#0839f4ebd8)"><g clip-path="url(#3db62c1505)"><path fill="#cc69d4" d="M 213.339844 501.046875 L 317.371094 501.046875 L 317.371094 605.078125 L 213.339844 605.078125 Z M 213.339844 501.046875 " fill-opacity="1" fill-rule="nonzero"/></g></g><g clip-path="url(#d30efd9d5c)"><g clip-path="url(#259f803f2c)"><path stroke-linecap="butt" transform="matrix(0.75, 0, 0, 0.75, 213.338988, 501.045475)" fill="none" stroke-linejoin="miter" d="M 69.350103 0.00186694 C 31.048018 0.00186694 0.00114104 31.048744 0.00114104 69.350829 C 0.00114104 107.652914 31.048018 138.704999 69.350103 138.704999 C 107.652188 138.704999 138.704273 107.652914 138.704273 69.350829 C 138.704273 31.048744 107.652188 0.00186694 69.350103 0.00186694 Z M 69.350103 0.00186694 " stroke="#000000" stroke-width="58" stroke-opacity="1" stroke-miterlimit="4"/></g></g><g clip-path="url(#ab9b4ed702)"><g clip-path="url(#7ec128f465)"><path fill="#cc69d4" d="M 499.339844 501.046875 L 603.371094 501.046875 L 603.371094 605.078125 L 499.339844 605.078125 Z M 499.339844 501.046875 " fill-opacity="1" fill-rule="nonzero"/></g></g><g clip-path="url(#020621ca0f)"><g clip-path="url(#3902938403)"><path stroke-linecap="butt" transform="matrix(0.75, 0, 0, 0.75, 499.338146, 501.045475)" fill="none" stroke-linejoin="miter" d="M 69.351225 0.00186694 C 31.04914 0.00186694 0.00226316 31.048744 0.00226316 69.350829 C 0.00226316 107.652914 31.04914 138.704999 69.351225 138.704999 C 107.65331 138.704999 138.705395 107.652914 138.705395 69.350829 C 138.705395 31.048744 107.65331 0.00186694 69.351225 0.00186694 Z M 69.351225 0.00186694 " stroke="#000000" stroke-width="58" stroke-opacity="1" stroke-miterlimit="4"/></g></g><path stroke-linecap="butt" transform="matrix(0, -0.75, 0.75, 0, 253.474824, 373.549864)" fill="none" stroke-linejoin="miter" d="M -0.00122352 14.502318 L 91.201906 14.502318 " stroke="#000000" stroke-width="29" stroke-opacity="1" stroke-miterlimit="4"/><path stroke-linecap="butt" transform="matrix(0.569142, 0.488443, -0.488443, 0.569142, 297.83624, 438.503902)" fill="none" stroke-linejoin="miter" d="M 0.00126236 14.501279 L 152.585885 14.498495 " stroke="#000000" stroke-width="29" stroke-opacity="1" stroke-miterlimit="4"/><path stroke-linecap="butt" transform="matrix(-0.541558, 0.518859, -0.518859, -0.541558, 532.916401, 294.032993)" fill="none" stroke-linejoin="miter" d="M -0.00217935 14.499222 L 168.405179 14.500593 " stroke="#000000" stroke-width="29" stroke-opacity="1" stroke-miterlimit="4"/></svg>